<?xml version="1.0" encoding="UTF-8"?>
<svg width="22px" height="22px" viewBox="0 0 22 22" version="1.1" xmlns="http://www.w3.org/2000/svg" xmlns:xlink="http://www.w3.org/1999/xlink">
    <!-- Generator: Sketch 49.3 (51167) - http://www.bohemiancoding.com/sketch -->
    <title>Success</title>
    <desc>Created with Sketch.</desc>
    <defs></defs>
    <g id="豆瓣租房" stroke="none" stroke-width="1" fill="none" fill-rule="evenodd">
        <g id="浮层/完成-copy-3" transform="translate(-57.000000, -15.000000)" fill="#FFFFFF">
            <g id="小图标/多选/已勾选" transform="translate(57.000000, 15.000000)">
                <g id="Group-7">
                    <path d="M22,11.1358025 C22,17.0752593 17.0752593,22 10.8641975,22 C4.92474074,22 0,17.0752593 0,11.1358025 C0,4.92474074 4.92474074,0 10.8641975,0 C17.0752593,0 22,4.92474074 22,11.1358025 Z M5.43097615,11.8613208 L8.71326091,15.2400937 C8.98074045,15.5154362 9.42392658,15.5267831 9.69718323,15.2593009 L17.5861314,7.53706056 C17.7727228,7.3544122 17.7800206,7.03459107 17.5833481,6.84140026 L17.5996571,6.8574205 C17.4049538,6.66616405 17.0699132,6.65149484 16.8557214,6.82897641 L9.74273531,12.7228703 C9.44331216,12.9709755 8.9561275,12.9824362 8.65200879,12.7505975 L6.16851601,10.8573571 C5.95962743,10.6981152 5.64141992,10.7389158 5.47619559,10.962527 L5.37862063,11.0945829 C5.21363303,11.3178736 5.23683666,11.6614743 5.43097615,11.8613208 Z" id="Success"></path>
                </g>
            </g>
        </g>
    </g>
</svg>