<?xml version="1.0" encoding="UTF-8"?>
<svg width="22px" height="22px" viewBox="0 0 22 22" version="1.1" xmlns="http://www.w3.org/2000/svg" xmlns:xlink="http://www.w3.org/1999/xlink">
    <!-- Generator: Sketch 49.3 (51167) - http://www.bohemiancoding.com/sketch -->
    <title>Error_white</title>
    <desc>Created with Sketch.</desc>
    <defs></defs>
    <g id="豆瓣租房" stroke="none" stroke-width="1" fill="none" fill-rule="evenodd">
        <g id="浮层/完成-copy-2" transform="translate(-56.000000, -15.000000)" fill="#FFFFFF">
            <g id="小图标/警示/大号" transform="translate(56.000000, 15.000000)">
                <g id="Group-6">
                    <path d="M22,11.1358025 C22,17.0752593 17.0752593,22 10.8641975,22 C4.92474074,22 0,17.0752593 0,11.1358025 C0,4.92474074 4.92474074,0 10.8641975,0 C17.0752593,0 22,4.92474074 22,11.1358025 Z M10.8970093,5.5 C10.3463763,5.5 9.92129842,5.94726674 9.94793526,6.50664053 L10.2666667,13.2 L11.7333333,13.2 L12.0520647,6.50664053 C12.0785387,5.95068832 11.6547972,5.5 11.1029907,5.5 L10.8970093,5.5 Z M11,16.5 C11.6075132,16.5 12.1,16.0075132 12.1,15.4 C12.1,14.7924868 11.6075132,14.3 11,14.3 C10.3924868,14.3 9.9,14.7924868 9.9,15.4 C9.9,16.0075132 10.3924868,16.5 11,16.5 Z" id="Error_white"></path>
                </g>
            </g>
        </g>
    </g>
</svg>